<svg width="169" height="35" viewBox="0 0 169 35" fill="none" xmlns="http://www.w3.org/2000/svg">
<path fill-rule="evenodd" clip-rule="evenodd" d="M5.31286 0H51.9101C54.859 0 57.2462 2.3872 57.2462 5.33609V23.1231C57.2462 26.072 54.859 28.4592 51.9101 28.4592H35.1997L37.4933 34.0761L27.4062 28.4592H5.33627C2.38737 28.4592 0.000170629 26.072 0.000170629 23.1231V5.33609C-0.0232333 2.4106 2.36397 0 5.31286 0Z" fill="#9B5C8F"/>
<path d="M2.85548 4.84449C3.18314 4.39982 3.67462 4.16578 4.32993 4.11897C5.52353 4.02535 6.20225 4.58705 6.36607 5.80405C7.0916 10.6955 7.88733 14.838 8.72987 18.2315L13.8553 8.4721C14.3234 7.58275 14.9085 7.11467 15.6106 7.06787C16.6404 6.99765 17.2723 7.65296 17.5297 9.0338C18.1148 12.1465 18.8638 14.7912 19.7531 17.0379C20.3616 11.0933 21.3914 6.81042 22.8424 4.16578C23.1935 3.51047 23.7084 3.18282 24.3871 3.13601C24.9254 3.0892 25.4169 3.25303 25.8616 3.60409C26.3062 3.95515 26.5403 4.39982 26.5871 4.93811C26.6105 5.35938 26.5403 5.71044 26.353 6.0615C25.4403 7.74658 24.6914 10.5785 24.0829 14.5103C23.4978 18.3252 23.2871 21.2975 23.4275 23.4272C23.4744 24.0123 23.3807 24.5272 23.1467 24.9719C22.8658 25.4868 22.4446 25.7676 21.9063 25.8144C21.2978 25.8612 20.6659 25.5804 20.0574 24.9485C17.8808 22.7251 16.1489 19.4017 14.8851 14.9784C13.3639 17.9741 12.2405 20.2209 11.5149 21.7187C10.1341 24.3634 8.96391 25.7208 7.98095 25.791C7.34904 25.8378 6.81075 25.2995 6.34267 24.1761C5.14907 21.1102 3.86185 15.189 2.48102 6.41256C2.41081 5.80406 2.52783 5.26576 2.85548 4.84449Z" fill="white"/>
<path d="M53.174 8.51886C52.3314 7.04441 51.091 6.15506 49.4293 5.804C48.9847 5.71038 48.5634 5.66357 48.1655 5.66357C45.9187 5.66357 44.0932 6.83377 42.6656 9.17417C41.4486 11.1635 40.8401 13.3635 40.8401 15.7741C40.8401 17.5762 41.2145 19.1208 41.9635 20.4081C42.806 21.8825 44.0464 22.7719 45.7081 23.1229C46.1528 23.2165 46.5741 23.2633 46.9719 23.2633C49.2421 23.2633 51.0676 22.0931 52.4718 19.7527C53.6889 17.74 54.2974 15.54 54.2974 13.1294C54.2974 11.3039 53.9229 9.78267 53.174 8.51886ZM50.2251 15.0017C49.8974 16.5464 49.3123 17.6932 48.4464 18.4655C47.7677 19.074 47.1357 19.3315 46.5506 19.2145C45.989 19.0974 45.5209 18.606 45.1698 17.6932C44.889 16.9677 44.7485 16.2422 44.7485 15.5634C44.7485 14.9783 44.7954 14.3932 44.9124 13.855C45.123 12.8954 45.5209 11.9592 46.1528 11.0699C46.9251 9.92309 47.7443 9.45501 48.5868 9.61884C49.1485 9.73586 49.6166 10.2273 49.9676 11.1401C50.2485 11.8656 50.3889 12.5911 50.3889 13.2699C50.3889 13.8784 50.3187 14.4635 50.2251 15.0017Z" fill="white"/>
<path d="M38.4996 8.51886C37.6571 7.04441 36.3933 6.15506 34.755 5.804C34.3103 5.71038 33.8891 5.66357 33.4912 5.66357C31.2444 5.66357 29.4189 6.83377 27.9913 9.17417C26.7743 11.1635 26.1658 13.3635 26.1658 15.7741C26.1658 17.5762 26.5402 19.1208 27.2892 20.4081C28.1317 21.8825 29.3721 22.7719 31.0338 23.1229C31.4785 23.2165 31.8997 23.2633 32.2976 23.2633C34.5678 23.2633 36.3933 22.0931 37.7975 19.7527C39.0145 17.74 39.623 15.54 39.623 13.1294C39.623 11.3039 39.2486 9.78267 38.4996 8.51886ZM35.5507 15.0017C35.2231 16.5464 34.638 17.6932 33.772 18.4655C33.0933 19.074 32.4614 19.3315 31.8763 19.2145C31.3146 19.0974 30.8466 18.606 30.4955 17.6932C30.2146 16.9677 30.0742 16.2422 30.0742 15.5634C30.0742 14.9783 30.121 14.3932 30.2381 13.855C30.4487 12.8954 30.8466 11.9592 31.4785 11.0699C32.2508 9.92309 33.0699 9.45501 33.9125 9.61884C34.4742 9.73586 34.9422 10.2273 35.2933 11.1401C35.5742 11.8656 35.7146 12.5911 35.7146 13.2699C35.7146 13.8784 35.6678 14.4635 35.5507 15.0017Z" fill="white"/>
<path d="M63.1675 8.30845C61.5995 9.85311 60.8271 11.819 60.8271 14.2062C60.8271 16.7573 61.5995 18.8402 63.1441 20.4083C64.6888 21.9763 66.7015 22.7721 69.2058 22.7721C69.9313 22.7721 70.7504 22.6551 71.6398 22.3976V18.6062C70.8206 18.8402 70.1185 18.9572 69.51 18.9572C68.2696 18.9572 67.2866 18.536 66.5377 17.7168C65.7888 16.8743 65.4143 15.7509 65.4143 14.3233C65.4143 12.9892 65.7888 11.8892 66.5143 11.0467C67.2632 10.1808 68.176 9.75949 69.2994 9.75949C70.0249 9.75949 70.7972 9.87651 71.6398 10.1105V6.31912C70.8674 6.10848 70.0015 6.01486 69.0887 6.01486C66.7015 5.99146 64.7356 6.76379 63.1675 8.30845ZM79.4099 5.99146C77.2567 5.99146 75.5716 6.71698 74.3546 8.14462C73.1376 9.57226 72.5525 11.585 72.5525 14.1594C72.5525 16.9445 73.161 19.0743 74.3546 20.5487C75.5482 22.0232 77.3035 22.7721 79.5971 22.7721C81.8205 22.7721 83.529 22.0232 84.7226 20.5487C85.9162 19.0743 86.5247 16.9913 86.5247 14.3233C86.5247 11.6552 85.9162 9.59566 84.6992 8.14462C83.4588 6.71698 81.7035 5.99146 79.4099 5.99146ZM81.2588 18.1615C80.8375 18.8168 80.2056 19.1445 79.4099 19.1445C78.6609 19.1445 78.0993 18.8168 77.7014 18.1615C77.3035 17.5062 77.1163 16.1956 77.1163 14.2062C77.1163 11.1403 77.8886 9.61907 79.4567 9.61907C81.095 9.61907 81.9375 11.1637 81.9375 14.2765C81.9141 16.1956 81.6801 17.5062 81.2588 18.1615ZM98.0862 6.43614L97.2437 10.0169C97.033 10.9297 96.8224 11.8658 96.6352 12.8254L96.1671 15.3062C95.7224 12.8254 95.1139 9.87651 94.3416 6.43614H88.9119L86.8757 22.3742H90.948L92.048 11.3978L94.8331 22.3742H97.7352L100.403 11.4212L101.55 22.3742H105.81L103.656 6.43614H98.0862ZM117.582 6.43614L116.739 10.0169C116.529 10.9297 116.318 11.8658 116.131 12.8254L115.663 15.3062C115.218 12.8254 114.609 9.87651 113.837 6.43614H108.407L106.371 22.3742H110.444L111.543 11.3978L114.329 22.3742H117.231L119.875 11.4212L121.022 22.3742H125.282L123.128 6.43614H117.582ZM130.828 16.0786H134.643V12.7786H130.828V9.8531H135.228V6.45953H126.522V22.3976H135.252V19.004H130.828V16.0786ZM147.375 13.5509C147.82 12.8254 148.054 12.0765 148.054 11.3042C148.054 9.8063 147.469 8.6127 146.298 7.74675C145.128 6.8808 143.513 6.43614 141.501 6.43614H136.492V22.3742H140.798V15.119H140.869L144.356 22.3742H148.896L145.456 15.1892C146.275 14.8147 146.93 14.2765 147.375 13.5509ZM140.775 13.2935V9.50205C141.805 9.52545 142.53 9.68928 142.975 10.0169C143.42 10.3446 143.63 10.8595 143.63 11.6084C143.63 12.7084 142.671 13.2701 140.775 13.2935ZM150.581 8.30845C149.013 9.85311 148.241 11.819 148.241 14.2062C148.241 16.7573 149.013 18.8402 150.558 20.4083C152.103 21.9763 154.115 22.7721 156.619 22.7721C157.345 22.7721 158.164 22.6551 159.053 22.3976V18.6062C158.234 18.8402 157.532 18.9572 156.924 18.9572C155.683 18.9572 154.7 18.536 153.951 17.7168C153.202 16.8743 152.828 15.7509 152.828 14.3233C152.828 12.9892 153.202 11.8892 153.928 11.0467C154.677 10.1808 155.59 9.75949 156.713 9.75949C157.439 9.75949 158.211 9.87651 159.053 10.1105V6.31912C158.281 6.10848 157.415 6.01486 156.502 6.01486C154.139 5.99146 152.149 6.76379 150.581 8.30845ZM164.553 18.9572V16.0551H168.368V12.7552H164.553V9.82971H168.977V6.43614H160.27V22.3742H169V18.9806H164.553V18.9572Z" fill="black"/>
</svg>
